# xmcd CD database file
#
# Track frame offsets:
#	150
#	19247
#	41242
#	53875
#	74309
#	95635
#	118744
#	139847
#	162065
#	179602
#	203157
#	226712
#	239790
#	256658
#	273749
#	289948
#
# Disc length: 4154 seconds
#
# Revision: 1
# Processed by: cddbd v1.5.2PL0 Copyright (c) Steve Scherf et al.
# Submitted via: CDex 1.70beta2
#
DISCID=f4103810
DTITLE=Raul Torres - Maketa De Platino
DYEAR=2008
DGENRE=Jazz
TTITLE0=If you love me
TTITLE1=Desempolvando
TTITLE2=Miradas de hielo
TTITLE3=Mucho Ache
TTITLE4=Murallas Chinas
TTITLE5=El sol y el cielo
TTITLE6=La cruz de nacar
TTITLE7=Donde tu odio acabe
TTITLE8=Moviola
TTITLE9=La humildad
TTITLE10=Rashid
TTITLE11=Desde el estrecho
TTITLE12=Don quijote
TTITLE13=Ecoreflections
TTITLE14=Perbula Ranma
TTITLE15=Precisamente no es jazmin
EXTD=YEAR: 2008
EXTT0=
EXTT1=
EXTT2=
EXTT3=
EXTT4=
EXTT5=
EXTT6=
EXTT7=
EXTT8=
EXTT9=
EXTT10=
EXTT11=
EXTT12=
EXTT13=
EXTT14=
EXTT15=
PLAYORDER=
